<svg width="36" height="20" viewBox="0 0 36 20" fill="none" xmlns="http://www.w3.org/2000/svg">
<path d="M27.7792 11.1111H7.77917C7.15695 11.1111 6.66806 10.6222 6.66806 10C6.66806 9.37778 7.15695 8.88889 7.77917 8.88889H27.7792C28.4014 8.88889 28.8903 9.37778 28.8903 10C28.8903 10.6222 28.4014 11.1111 27.7792 11.1111Z" fill="#5F6C37"/>
<path d="M13.3347 18.8889C13.189 18.8907 13.0445 18.8619 12.9106 18.8045C12.7766 18.7471 12.6562 18.6623 12.5569 18.5556L4.77916 10.7778C4.33472 10.3333 4.33472 9.64445 4.77916 9.2L12.5569 1.44445C13.0014 1 13.6903 1 14.1347 1.44445C14.5792 1.88889 14.5792 2.57778 14.1347 3.02223L7.13472 10.0222L14.1347 17.0222C14.5792 17.4667 14.5792 18.1556 14.1347 18.6C13.9125 18.8222 13.6236 18.9333 13.3569 18.9333L13.3347 18.8889Z" fill="#5F6C37"/>
</svg>
