<svg width="30" height="30" viewBox="0 0 30 30" fill="none" xmlns="http://www.w3.org/2000/svg">
<path d="M24.0875 6.6625C22.425 5.8875 20.625 5.325 18.75 5C18.7336 4.99947 18.7172 5.00256 18.7021 5.00903C18.687 5.01551 18.6735 5.02523 18.6625 5.0375C18.4375 5.45 18.175 5.9875 18 6.4C16.0112 6.1 13.9887 6.1 12 6.4C11.825 5.975 11.5625 5.45 11.325 5.0375C11.3125 5.0125 11.275 5 11.2375 5C9.36249 5.325 7.57499 5.8875 5.89999 6.6625C5.88749 6.6625 5.87499 6.675 5.86249 6.6875C2.46249 11.775 1.52499 16.725 1.98749 21.625C1.98749 21.65 1.99999 21.675 2.02499 21.6875C4.27499 23.3375 6.43749 24.3375 8.57499 25C8.61249 25.0125 8.64999 25 8.66249 24.975C9.16249 24.2875 9.61249 23.5625 9.99999 22.8C10.025 22.75 9.99999 22.7 9.94999 22.6875C9.23749 22.4125 8.56249 22.0875 7.89999 21.7125C7.84999 21.6875 7.84999 21.6125 7.88749 21.575C8.02499 21.475 8.16249 21.3625 8.29999 21.2625C8.32499 21.2375 8.36249 21.2375 8.38749 21.25C12.6875 23.2125 17.325 23.2125 21.575 21.25C21.6 21.2375 21.6375 21.2375 21.6625 21.2625C21.8 21.375 21.9375 21.475 22.075 21.5875C22.125 21.625 22.125 21.7 22.0625 21.725C21.4125 22.1125 20.725 22.425 20.0125 22.7C19.9625 22.7125 19.95 22.775 19.9625 22.8125C20.3625 23.575 20.8125 24.3 21.3 24.9875C21.3375 25 21.375 25.0125 21.4125 25C23.5625 24.3375 25.725 23.3375 27.975 21.6875C28 21.675 28.0125 21.65 28.0125 21.625C28.5625 15.9625 27.1 11.05 24.1375 6.6875C24.125 6.675 24.1125 6.6625 24.0875 6.6625ZM10.65 18.6375C9.36249 18.6375 8.28749 17.45 8.28749 15.9875C8.28749 14.525 9.33749 13.3375 10.65 13.3375C11.975 13.3375 13.025 14.5375 13.0125 15.9875C13.0125 17.45 11.9625 18.6375 10.65 18.6375ZM19.3625 18.6375C18.075 18.6375 17 17.45 17 15.9875C17 14.525 18.05 13.3375 19.3625 13.3375C20.6875 13.3375 21.7375 14.5375 21.725 15.9875C21.725 17.45 20.6875 18.6375 19.3625 18.6375Z" fill="white"/>
</svg>
