<svg width="26" height="20" viewBox="0 0 26 20" fill="none" xmlns="http://www.w3.org/2000/svg">
<g clip-path="url(#clip0_1_832)">
<path d="M21.7952 1.66804C20.1079 0.878562 18.3229 0.317605 16.4873 0C16.2587 0.413367 15.9915 0.969347 15.8073 1.41166C13.8282 1.11404 11.8673 1.11404 9.92458 1.41166C9.74046 0.969447 9.4673 0.413367 9.23654 0C7.39915 0.317744 5.61258 0.880129 3.92448 1.67216C0.565288 6.74844 -0.345366 11.6985 0.109911 16.5785C2.33795 18.2423 4.49715 19.2531 6.61996 19.9145C7.14757 19.189 7.61393 18.4209 8.01423 17.6181C7.25205 17.3279 6.51727 16.9703 5.81865 16.5495C6.00249 16.4133 6.18201 16.2712 6.35695 16.1237C10.5903 18.1038 15.1901 18.1038 19.373 16.1237C19.5487 16.2703 19.7282 16.4123 19.9112 16.5495C19.2115 16.9715 18.4753 17.3298 17.7116 17.6202C18.1142 18.4262 18.5798 19.1951 19.1059 19.9165C21.2307 19.2552 23.3919 18.2444 25.62 16.5785C26.1542 10.9214 24.7074 6.01678 21.7952 1.66804ZM8.59102 13.5774C7.32016 13.5774 6.27795 12.391 6.27795 10.9462C6.27795 9.50151 7.29795 8.31306 8.59102 8.31306C9.88408 8.31306 10.9263 9.4994 10.9041 10.9462C10.9061 12.391 9.88418 13.5774 8.59102 13.5774ZM17.1389 13.5774C15.868 13.5774 14.8259 12.391 14.8259 10.9462C14.8259 9.50151 15.8458 8.31306 17.1389 8.31306C18.432 8.31306 19.4741 9.4994 19.4519 10.9462C19.4519 12.391 18.432 13.5774 17.1389 13.5774Z" fill="#007AFF"/>
</g>
<defs>
<clipPath id="clip0_1_832">
<rect width="25.73" height="20" fill="white"/>
</clipPath>
</defs>
</svg>
