<svg width="501" height="661" viewBox="0 0 501 661" fill="none" xmlns="http://www.w3.org/2000/svg">
<g opacity="0.5" clip-path="url(#clip0_2_964)">
<path d="M5.25 247.875C27.1635 247.875 48.1795 239.17 63.6747 223.675C79.1699 208.18 87.875 187.164 87.875 165.25M5.25 247.875C-16.6635 247.875 -37.6795 239.17 -53.1747 223.675C-68.6699 208.18 -77.375 187.164 -77.375 165.25M5.25 247.875V330.5M87.875 165.25C87.875 143.336 79.1699 122.32 63.6747 106.825C48.1795 91.3301 27.1635 82.625 5.25 82.625M87.875 165.25H170.5M5.25 82.625C-16.6635 82.625 -37.6795 91.3301 -53.1747 106.825C-68.6699 122.32 -77.375 143.336 -77.375 165.25M5.25 82.625V0M-77.375 165.25H-160M-104.917 55.0833L-49.8333 110.167M60.3333 220.333L115.417 275.417M115.417 55.0833L60.3333 110.167M-49.8333 220.333L-104.917 275.417M335.75 330.5C357.664 330.5 378.68 321.795 394.175 306.3C409.67 290.805 418.375 269.789 418.375 247.875M335.75 330.5C313.836 330.5 292.82 321.795 277.325 306.3C261.83 290.805 253.125 269.789 253.125 247.875M335.75 330.5V413.125M418.375 247.875C418.375 225.961 409.67 204.945 394.175 189.45C378.68 173.955 357.664 165.25 335.75 165.25M418.375 247.875H501M335.75 165.25C313.836 165.25 292.82 173.955 277.325 189.45C261.83 204.945 253.125 225.961 253.125 247.875M335.75 165.25V82.625M253.125 247.875H170.5M225.583 137.708L280.667 192.792M390.833 302.958L445.917 358.042M445.917 137.708L390.833 192.792M280.667 302.958L225.583 358.042M87.875 578.375C109.789 578.375 130.805 569.67 146.3 554.175C161.795 538.68 170.5 517.664 170.5 495.75M87.875 578.375C65.9615 578.375 44.9455 569.67 29.4503 554.175C13.9551 538.68 5.25 517.664 5.25 495.75M87.875 578.375V661M170.5 495.75C170.5 473.836 161.795 452.82 146.3 437.325C130.805 421.83 109.789 413.125 87.875 413.125M170.5 495.75H253.125M87.875 413.125C65.9615 413.125 44.9455 421.83 29.4503 437.325C13.9551 452.82 5.25 473.836 5.25 495.75M87.875 413.125V330.5M5.25 495.75H-77.375M-22.2917 385.583L32.7917 440.667M142.958 550.833L198.042 605.917M198.042 385.583L142.958 440.667M32.7917 550.833L-22.2917 605.917" stroke="#65776B" stroke-width="50"/>
</g>
<defs>
<clipPath id="clip0_2_964">
<rect width="661" height="661" fill="white" transform="translate(-160)"/>
</clipPath>
</defs>
</svg>
