<svg width="361" height="716" viewBox="0 0 361 716" fill="none" xmlns="http://www.w3.org/2000/svg">
<g opacity="0.5">
<path d="M208.595 432.643C200.682 432.643 193.094 435.786 187.499 441.381C181.904 446.976 178.761 454.564 178.761 462.476V515.639C140.309 472.154 119.087 416.108 119.095 358.06C119.082 349.285 119.6 340.518 120.646 331.806C121.215 327.871 120.992 323.862 119.989 320.014C118.987 316.166 117.225 312.557 114.808 309.4C112.391 306.243 109.367 303.601 105.914 301.629C102.461 299.657 98.6485 298.395 94.7009 297.918C90.7533 297.441 86.7502 297.757 82.9268 298.85C79.1033 299.942 75.5368 301.787 72.4368 304.277C69.3368 306.767 66.7658 309.852 64.8751 313.35C62.9843 316.848 61.812 320.689 61.4269 324.646C60.0794 335.733 59.4119 346.892 59.428 358.06C59.4687 429.247 85.0552 498.057 131.535 551.976H89.2614C81.3491 551.976 73.7608 555.12 68.166 560.714C62.5712 566.309 59.428 573.897 59.428 581.81C59.428 589.722 62.5712 597.31 68.166 602.905C73.7608 608.5 81.3491 611.643 89.2614 611.643H208.595C213.26 611.583 217.844 610.409 221.964 608.219C226.084 606.029 229.622 602.887 232.282 599.053C232.61 598.606 233.058 598.248 233.386 597.771C233.595 597.472 233.595 597.114 233.774 596.816C235.195 594.417 236.26 591.824 236.936 589.119C237.384 587.597 237.703 586.04 237.891 584.465C237.98 583.57 238.428 582.764 238.428 581.81V462.476C238.428 454.564 235.285 446.976 229.69 441.381C224.095 435.786 216.507 432.643 208.595 432.643ZM253.345 179.06H200.152C243.647 140.605 299.704 119.383 357.761 119.393C366.537 119.374 375.305 119.902 384.015 120.974C391.876 121.924 399.792 119.712 406.021 114.824C412.251 109.937 416.285 102.776 417.234 94.9148C418.184 87.0539 415.971 79.1378 411.084 72.908C406.197 66.6781 399.036 62.6448 391.175 61.6954C380.087 60.3619 368.929 59.7043 357.761 59.7264C286.574 59.7671 217.764 85.3536 163.845 131.834V89.5597C163.845 81.6474 160.702 74.0592 155.107 68.4643C149.512 62.8695 141.924 59.7264 134.011 59.7264C126.099 59.7264 118.511 62.8695 112.916 68.4643C107.321 74.0592 104.178 81.6474 104.178 89.5597V208.893C104.362 210.867 104.752 212.817 105.342 214.711C106.061 218.392 107.489 221.898 109.548 225.033L109.906 225.54C111.874 228.402 114.339 230.888 117.185 232.879C117.514 233.118 117.693 233.476 118.021 233.714C118.438 234.013 118.916 234.102 119.363 234.341C121.062 235.36 122.861 236.2 124.733 236.847C127.245 237.723 129.865 238.255 132.52 238.428C133.057 238.428 133.474 238.726 134.011 238.726H253.345C261.257 238.726 268.845 235.583 274.44 229.988C280.035 224.394 283.178 216.805 283.178 208.893C283.178 200.981 280.035 193.393 274.44 187.798C268.845 182.203 261.257 179.06 253.345 179.06ZM610.151 501.379C609.43 497.708 608.001 494.212 605.945 491.087L605.617 490.579C603.64 487.715 601.164 485.229 598.307 483.24C597.979 483.002 597.83 482.644 597.472 482.405C597.174 482.196 596.786 482.196 596.458 481.987C592.672 479.877 588.522 478.501 584.226 477.93C583.271 477.841 582.466 477.393 581.511 477.393H462.178C454.266 477.393 446.677 480.536 441.083 486.131C435.488 491.726 432.345 499.314 432.345 507.226C432.345 515.139 435.488 522.727 441.083 528.322C446.677 533.917 454.266 537.06 462.178 537.06H515.341C471.855 575.51 415.809 596.732 357.761 596.726C348.985 596.736 340.217 596.198 331.508 595.115C323.647 594.166 315.731 596.378 309.501 601.265C303.271 606.152 299.238 613.314 298.289 621.175C297.339 629.036 299.551 636.952 304.438 643.182C309.325 649.411 316.487 653.445 324.348 654.394C335.436 655.728 346.594 656.395 357.761 656.393C428.949 656.352 497.758 630.766 551.678 584.286V626.56C551.678 634.472 554.821 642.06 560.416 647.655C566.011 653.25 573.599 656.393 581.511 656.393C589.424 656.393 597.012 653.25 602.607 647.655C608.201 642.06 611.345 634.472 611.345 626.56V507.226C611.151 505.251 610.751 503.271 610.151 501.379ZM626.261 164.143C634.174 164.143 641.762 161 647.357 155.405C652.951 149.81 656.095 142.222 656.095 134.31C656.095 126.397 652.951 118.809 647.357 113.214C641.762 107.62 634.174 104.476 626.261 104.476H506.928C504.984 104.666 503.064 105.056 501.2 105.64L500.991 105.67C497.374 106.401 493.931 107.819 490.848 109.846L490.251 110.234C487.4 112.205 484.925 114.671 482.942 117.514C482.703 117.812 482.345 117.991 482.107 118.319C481.898 118.617 481.898 119.005 481.689 119.333C479.563 123.144 478.185 127.326 477.632 131.655C477.542 132.55 477.095 133.355 477.095 134.31V253.643C477.095 261.555 480.238 269.144 485.833 274.738C491.427 280.333 499.016 283.476 506.928 283.476C514.84 283.476 522.428 280.333 528.023 274.738C533.618 269.144 536.761 261.555 536.761 253.643V200.45C575.214 243.947 596.435 300.003 596.428 358.06C596.431 366.835 595.903 375.602 594.847 384.313C593.903 392.164 596.112 400.069 600.989 406.294C605.866 412.519 613.013 416.555 620.861 417.518C622.069 417.659 623.285 417.729 624.501 417.726C631.784 417.713 638.811 415.037 644.257 410.201C649.703 405.365 653.192 398.704 654.066 391.473C655.423 380.387 656.101 369.228 656.095 358.06C656.054 286.872 630.467 218.063 583.987 164.143H626.261Z" fill="#64746A"/>
</g>
</svg>
