<svg width="396" height="520" viewBox="0 0 396 520" fill="none" xmlns="http://www.w3.org/2000/svg">
<g opacity="0.5">
<path d="M86.7292 407.812H185.271V506.354H86.7292V407.812Z" fill="#A39C6E"/>
<path fill-rule="evenodd" clip-rule="evenodd" d="M136 102.333C88.8971 102.333 57.1667 145.14 57.1667 181.167H-21.6666C-21.6666 110.138 37.3007 23.5 136 23.5C234.384 23.5 293.667 107.93 293.667 181.167C293.667 243.366 249.993 274.899 222.953 294.411L218.381 297.722C188.621 319.48 175.417 331.857 175.417 358.542H96.5834C96.5834 289.089 142.346 255.664 171.751 234.182L171.869 234.103C204.664 210.099 214.833 200.993 214.833 181.167C214.833 143.721 183.458 102.333 136 102.333Z" fill="#A39C6E"/>
</g>
</svg>
