<svg width="43" height="43" viewBox="0 0 43 43" fill="none" xmlns="http://www.w3.org/2000/svg">
<circle cx="21.5" cy="21.5" r="21.5" fill="#F4EEE2"/>
<path d="M28.5 11.5H31.5V14.5H28.5V11.5ZM28.5 16H31.5V19H28.5V16ZM24 11.5H27V14.5H24V11.5ZM24 16H27V19H24V16Z" fill="#1E1E1E"/>
<path d="M30 22V26.5H12V14.5H21V13H12C11.6022 13 11.2206 13.158 10.9393 13.4393C10.658 13.7206 10.5 14.1022 10.5 14.5V26.5C10.5 26.8978 10.658 27.2794 10.9393 27.5607C11.2206 27.842 11.6022 28 12 28H18V31H15V32.5H27V31H24V28H30C30.3978 28 30.7794 27.842 31.0607 27.5607C31.342 27.2794 31.5 26.8978 31.5 26.5V22H30ZM22.5 31H19.5V28H22.5V31Z" fill="#1E1E1E"/>
</svg>
